<svg width="7" height="13" viewBox="0 0 7 13" fill="none" xmlns="http://www.w3.org/2000/svg">
<path d="M5.21553 6.16665L0.193728 1.14485C0.0612506 1.01237 -0.00328267 0.854683 0.00012844 0.671783C0.00355066 0.488872 0.0715005 0.331184 0.203978 0.198717C0.336456 0.0662395 0.494145 0 0.677045 0C0.859945 0 1.01763 0.0662395 1.15011 0.198717L6.25396 5.31282C6.37447 5.43333 6.46379 5.56837 6.52191 5.71793C6.58002 5.86751 6.60908 6.01708 6.60908 6.16665C6.60908 6.31622 6.58002 6.46579 6.52191 6.61537C6.46379 6.76493 6.37447 6.89997 6.25396 7.02048L1.13986 12.1346C1.00738 12.2671 0.8514 12.3316 0.671911 12.3282C0.492434 12.3248 0.336456 12.2568 0.203978 12.1243C0.0715005 11.9919 0.0052615 11.8342 0.0052615 11.6513C0.0052615 11.4684 0.0715005 11.3107 0.203978 11.1782L5.21553 6.16665Z" fill="#D9D9D9"/>
</svg>
