<svg width="7" height="13" viewBox="0 0 7 13" fill="none" xmlns="http://www.w3.org/2000/svg">
<path d="M1.39356 6.16147L6.41536 11.1833C6.54783 11.3158 6.61237 11.4734 6.60896 11.6563C6.60553 11.8393 6.53758 11.9969 6.40511 12.1294C6.27263 12.2619 6.11494 12.3281 5.93204 12.3281C5.74914 12.3281 5.59145 12.2619 5.45897 12.1294L0.355123 7.01531C0.234612 6.8948 0.145296 6.75976 0.0871735 6.61019C0.0290623 6.46061 7.20175e-06 6.31104 7.21483e-06 6.16147C7.2279e-06 6.01191 0.0290624 5.86234 0.0871736 5.71276C0.145296 5.56319 0.234612 5.42815 0.355123 5.30764L5.46922 0.193542C5.6017 0.0610646 5.75769 -0.00346954 5.93717 -5.82329e-05C6.11665 0.00336357 6.27263 0.0713138 6.40511 0.203792C6.53759 0.336269 6.60382 0.493958 6.60382 0.676858C6.60382 0.859758 6.53759 1.01745 6.40511 1.14993L1.39356 6.16147Z" fill="#D9D9D9"/>
</svg>
