<svg width="17" height="17" viewBox="0 0 17 17" fill="none" xmlns="http://www.w3.org/2000/svg">
<path d="M7.07674 9.7309H1.32711C0.954693 9.7309 0.640403 9.60282 0.384242 9.34666C0.12808 9.0905 0 8.77622 0 8.40382C0 8.03142 0.12808 7.71714 0.384242 7.46098C0.640403 7.20482 0.954693 7.07674 1.32711 7.07674H7.07674V1.32711C7.07674 0.954692 7.20482 0.640403 7.46098 0.384242C7.71714 0.128081 8.03142 0 8.40382 0C8.77622 0 9.0905 0.128081 9.34666 0.384242C9.60282 0.640403 9.7309 0.954692 9.7309 1.32711V7.07674H15.4805C15.8529 7.07674 16.1672 7.20482 16.4234 7.46098C16.6796 7.71714 16.8076 8.03142 16.8076 8.40382C16.8076 8.77622 16.6796 9.0905 16.4234 9.34666C16.1672 9.60282 15.8529 9.7309 15.4805 9.7309H9.7309V15.4805C9.7309 15.8529 9.60282 16.1672 9.34666 16.4234C9.0905 16.6796 8.77622 16.8076 8.40382 16.8076C8.03142 16.8076 7.71714 16.6796 7.46098 16.4234C7.20482 16.1672 7.07674 15.8529 7.07674 15.4805V9.7309Z" fill="#5534DA"/>
</svg>
