<svg width="12" height="12" viewBox="0 0 12 12" fill="none" xmlns="http://www.w3.org/2000/svg">
<path d="M5.16667 6.16663V8.33332C5.16667 8.4752 5.21453 8.594 5.31025 8.68972C5.40597 8.78544 5.52477 8.8333 5.66665 8.8333C5.80853 8.8333 5.92733 8.78544 6.02305 8.68972C6.11877 8.594 6.16663 8.4752 6.16663 8.33332V6.16663H8.33332C8.47519 6.16663 8.59399 6.11877 8.68972 6.02305C8.78544 5.92733 8.8333 5.80853 8.8333 5.66665C8.8333 5.52477 8.78544 5.40597 8.68972 5.31025C8.59399 5.21453 8.47519 5.16667 8.33332 5.16667H6.16663V2.99998C6.16663 2.85811 6.11877 2.73931 6.02305 2.64358C5.92733 2.54786 5.80853 2.5 5.66665 2.5C5.52477 2.5 5.40597 2.54786 5.31025 2.64358C5.21453 2.73931 5.16667 2.85811 5.16667 2.99998V5.16667H2.99998C2.85811 5.16667 2.73931 5.21453 2.64358 5.31025C2.54786 5.40597 2.5 5.52477 2.5 5.66665C2.5 5.80853 2.54786 5.92733 2.64358 6.02305C2.73931 6.11877 2.85811 6.16663 2.99998 6.16663H5.16667ZM1.20513 11.3333C0.868378 11.3333 0.583333 11.2166 0.35 10.9833C0.116667 10.75 0 10.4649 0 10.1282V1.20513C0 0.868379 0.116667 0.583333 0.35 0.35C0.583333 0.116667 0.868378 0 1.20513 0H10.1282C10.4649 0 10.75 0.116667 10.9833 0.35C11.2166 0.583333 11.3333 0.868379 11.3333 1.20513V10.1282C11.3333 10.4649 11.2166 10.75 10.9833 10.9833C10.75 11.2166 10.4649 11.3333 10.1282 11.3333H1.20513ZM1.20513 10.3333H10.1282C10.1795 10.3333 10.2265 10.312 10.2692 10.2692C10.312 10.2265 10.3333 10.1795 10.3333 10.1282V1.20513C10.3333 1.15385 10.312 1.10683 10.2692 1.06408C10.2265 1.02135 10.1795 0.999984 10.1282 0.999984H1.20513C1.15384 0.999984 1.10683 1.02135 1.06408 1.06408C1.02135 1.10683 0.999983 1.15385 0.999983 1.20513V10.1282C0.999983 10.1795 1.02135 10.2265 1.06408 10.2692C1.10683 10.312 1.15384 10.3333 1.20513 10.3333Z" fill="white"/>
</svg>
