<svg width="24" height="28" viewBox="0 0 24 28" fill="none" xmlns="http://www.w3.org/2000/svg">
<path d="M23.6172 2.08416C23.6063 2.0624 23.5809 2.0479 23.5554 2.05515C23.3337 2.14942 23.1119 2.2292 22.8829 2.31259C22.254 2.54466 21.5997 2.69695 20.9454 2.84924C20.1965 3.01604 19.4331 3.1357 18.6879 3.32062C18.0445 3.47654 17.4047 3.66509 16.7867 3.91166C16.3214 4.09296 15.8634 4.28877 15.4344 4.53896C14.9255 4.81816 14.5147 5.23515 14.1149 5.64852C13.7477 6.03287 13.3769 6.41723 13.0534 6.84147C12.8716 7.08079 12.7189 7.34186 12.5735 7.60293C12.8026 6.73994 13.1224 5.8697 13.7077 5.18076C13.7513 5.12637 13.7004 5.0611 13.6386 5.09011C13.4896 5.16263 13.3515 5.25691 13.2097 5.34393C12.1264 6.07639 11.1594 6.98651 10.327 7.99092C9.91985 8.48768 9.52725 8.99532 9.20372 9.5501C8.8293 10.1992 8.54575 10.899 8.34218 11.6205C8.32037 11.1927 8.35672 10.7648 8.41489 10.3406C8.42579 10.2644 8.4367 10.1919 8.44033 10.1158C8.44033 10.065 8.45487 9.99247 8.40398 9.96346C8.36763 9.94533 8.33128 9.96346 8.30583 9.99247C8.27311 10.0251 8.24767 10.0614 8.21859 10.0976C8.16042 10.1738 8.10226 10.2535 8.04773 10.3333C7.86597 10.5908 7.70239 10.8627 7.56062 11.1455C7.21164 11.8599 6.89174 12.5814 6.56821 13.3066C6.24105 14.0318 5.93933 14.7715 5.62306 15.5004C5.32134 16.1893 4.99054 16.8674 4.64884 17.5382C4.46344 17.8972 4.27441 18.2561 4.05266 18.597C3.95815 18.742 3.86 18.8834 3.75821 19.0212C3.77276 18.9922 3.7873 18.9668 3.80184 18.9378C4.09992 18.354 4.30349 17.7304 4.48889 17.1031C4.64156 16.7006 4.79424 16.2981 4.9651 15.9065C5.16503 15.4605 5.34315 15.0072 5.51401 14.5504C5.85572 13.6874 6.27013 12.8606 6.7427 12.0593C7.04806 11.5408 7.37522 11.0331 7.67331 10.5074C7.95322 10.0142 8.17496 9.49208 8.42943 8.98807C8.61845 8.61096 8.81112 8.23386 8.9747 7.84588C9.02196 7.7371 9.06922 7.62469 9.11284 7.51228C9.13102 7.45789 9.15283 7.39988 9.16373 7.34186C9.16373 7.3201 9.16737 7.29472 9.15283 7.27297C9.12011 7.2222 9.05468 7.24033 9.01469 7.27297C8.89837 7.35999 8.78931 7.45064 8.67662 7.54492C8.3131 7.85313 7.93504 8.14321 7.54608 8.41878C8.37853 7.41076 9.26552 6.38097 9.66539 5.11187C9.69447 5.00309 9.77444 4.73114 9.69447 4.64049C9.63994 4.59335 9.57814 4.65862 9.54543 4.6985C9.20736 5.11912 8.85111 5.52523 8.45487 5.89146C8.60755 5.65214 8.75296 5.40557 8.88382 5.15175C9.10193 4.71663 9.31641 4.27789 9.49453 3.82464C9.70537 3.26986 9.86532 2.70058 10.0325 2.13492C10.2034 1.5185 10.3561 0.894827 10.5415 0.282032C10.5596 0.224016 10.5778 0.166 10.5887 0.104358C10.5887 0.0862278 10.596 0.0644718 10.5887 0.0463417C10.5778 0.0137077 10.5378 -0.00804832 10.5051 0.00282969C10.476 0.0100817 10.447 0.0282117 10.4215 0.0499677C10.0507 0.398064 9.71992 0.786047 9.36367 1.14502C9.10194 1.41335 8.83657 1.6853 8.58574 1.9645C8.08045 2.53741 7.62969 3.16108 7.27344 3.83552C6.94991 4.44831 6.71362 5.11187 6.56821 5.78993C6.37191 6.67468 6.30648 7.58118 6.18288 8.4768C6.04111 8.08882 5.9575 7.67908 5.93933 7.26209C5.93205 7.1243 5.92478 6.97926 5.91751 6.83059C5.91751 6.7617 5.91751 6.61303 5.81209 6.64567C5.77938 6.6638 5.7612 6.70006 5.74303 6.73632C5.71031 6.80159 5.68123 6.87048 5.65215 6.93937C5.56127 7.14968 5.45948 7.35274 5.36497 7.55942C5.09596 8.13958 4.86331 8.7415 4.74335 9.3688C4.63793 9.88369 4.5834 10.4095 4.5834 10.9316C4.5834 11.6641 4.69609 12.3856 4.69246 13.1217C4.49252 12.799 4.28895 12.4727 4.20534 12.0956C4.16172 11.9179 4.129 11.7402 4.09992 11.5625C4.09265 11.5118 4.08175 11.4574 4.07448 11.4066C4.06721 11.3704 4.06721 11.3232 4.03812 11.2978C3.97269 11.2471 3.92907 11.3341 3.91453 11.3885C3.79093 11.7801 3.72913 12.1935 3.71459 12.6068C3.69642 13.0238 3.7364 13.4408 3.77639 13.8578C3.81274 14.2349 3.85273 14.612 3.87818 14.9927C3.86 15.1305 3.85273 15.2683 3.84182 15.4061C3.7982 16.0842 3.72186 16.7622 3.591 17.4294C3.50375 17.9661 3.39106 18.4954 3.20203 19.0103C3.09298 19.3766 2.9512 19.7319 2.77308 20.0691C2.744 20.1163 2.71855 20.167 2.69311 20.2142C2.34049 20.8415 2.01696 21.4833 1.66071 22.1069C1.44624 22.4732 1.23903 22.8467 1.04637 23.2274C0.904596 23.474 0.77373 23.7241 0.661039 23.9816C0.562889 24.1992 0.468374 24.4203 0.38113 24.6415C0.348413 24.7358 0.253898 24.9244 0.304791 25.0186C0.38113 25.0875 0.442928 24.9969 0.490185 24.899C0.501091 24.8881 0.511996 24.8772 0.519267 24.8663C0.548348 24.8265 0.573794 24.7866 0.595606 24.7431C0.653768 24.6452 0.711931 24.5509 0.766459 24.4566C1.00638 24.0396 1.23903 23.619 1.47532 23.1984C1.82793 22.5457 2.21326 21.9111 2.60223 21.2766C2.66766 21.1714 2.72946 21.0663 2.79489 20.9575C2.87487 20.8415 2.95484 20.7291 3.03845 20.613C3.18749 20.41 3.34744 20.2142 3.52193 20.0329C3.7364 19.7972 4.00541 19.5687 4.25624 19.3693C4.61975 19.0756 4.94692 18.742 5.26682 18.4048C6.01203 17.5962 6.71362 16.7477 7.44066 15.921C7.92414 15.3408 8.44397 14.7824 9.00015 14.2748C9.41093 13.9303 9.83624 13.6003 10.2688 13.2849C10.9595 12.7917 11.6866 12.353 12.3736 11.8526C13.1842 11.2616 13.9767 10.6452 14.7038 9.95258C14.7256 9.9272 14.751 9.89819 14.7365 9.86193C14.7219 9.8148 14.6638 9.82205 14.6238 9.83292C14.4602 9.87644 14.3039 9.94171 14.1439 9.98159C13.9804 10.0179 13.8131 10.0505 13.6495 10.0795C13.2024 10.1665 12.7444 10.2028 12.29 10.2064C12.5481 10.1085 12.8098 10.0142 13.0716 9.9272C13.7223 9.7314 14.3802 9.5646 15.0164 9.32528C16.1469 8.9373 17.1357 8.24111 18.0409 7.47602C18.2626 7.2911 18.488 7.10617 18.6915 6.89949C18.7279 6.85598 18.7824 6.81609 18.7897 6.75445C18.7897 6.68193 18.7025 6.68193 18.6479 6.69643C18.139 6.80521 17.6264 6.91037 17.1102 6.96476C16.7685 6.99739 16.4123 7.02277 16.0706 6.96113C16.4668 6.84147 16.8667 6.73632 17.2738 6.65292C17.6519 6.57677 18.0336 6.50425 18.4007 6.39185C18.9715 6.22505 19.484 5.89871 19.9202 5.49985C20.182 5.24966 20.4255 4.98133 20.6655 4.70938C20.9199 4.4193 21.1489 4.10747 21.4179 3.82826C21.7705 3.45841 22.1559 3.12119 22.5667 2.82023C22.872 2.58092 23.1992 2.37786 23.5372 2.18568C23.5627 2.17118 23.5881 2.16393 23.6136 2.14942C23.6354 2.13492 23.6427 2.10954 23.6318 2.08416H23.6172ZM3.75094 19.3113C3.75094 19.3113 3.75094 19.3113 3.74367 19.3113H3.74731H3.75094ZM4.61975 15.4133C4.89966 14.4996 5.16867 13.5822 5.45948 12.6721C5.73212 11.7402 6.00476 10.8083 6.29194 9.88369C6.61183 8.78864 6.8663 7.67545 7.20437 6.58403C7.44429 5.81531 7.71329 5.05385 8.01502 4.3069C8.28765 3.63246 8.59301 2.9689 9.00742 2.36698C8.66935 3.16833 8.32037 3.96243 8.02592 4.77828C7.74238 5.4926 7.50245 6.22143 7.29525 6.96113C6.78996 8.59646 6.4846 10.2862 5.99749 11.9251C5.79028 12.6503 5.55763 13.3683 5.3068 14.0826C5.12868 14.5939 4.91784 15.1051 4.74335 15.6164C4.35438 16.7513 3.9945 17.8972 3.55101 19.014C3.54374 19.0212 3.53647 19.0285 3.5292 19.0357C3.51466 19.0321 3.50012 19.0357 3.48921 19.0393C3.56555 18.8 3.63825 18.5571 3.70005 18.3141C3.9945 17.3424 4.31803 16.3815 4.61975 15.4133ZM15.5471 6.50063C15.1254 6.79071 14.7038 7.08079 14.3039 7.39625C13.6386 7.92565 12.9916 8.47317 12.3482 9.02795C11.9737 9.36154 11.6357 9.73502 11.283 10.094C10.9341 10.4566 10.5815 10.8119 10.2507 11.1891C9.8108 11.6786 9.36003 12.1608 8.93835 12.6685C8.56756 13.1036 8.22949 13.5677 7.89505 14.0318C7.64786 14.3618 7.39703 14.6918 7.16438 15.0326C6.88811 15.4278 6.60093 15.8122 6.32465 16.2074C6.04838 16.6063 5.77574 17.0052 5.50674 17.4076C5.33588 17.6615 5.16503 17.9189 4.9651 18.1546C4.72881 18.4338 4.48525 18.7275 4.21625 18.985C4.11446 19.0756 4.01631 19.1663 3.91816 19.2605C3.91816 19.2605 3.91816 19.2605 3.91453 19.2605C3.86727 19.2497 3.86727 19.2061 3.87818 19.1699C4.07084 18.9559 4.26351 18.7456 4.45254 18.5281C4.68155 18.2634 4.88876 17.9806 5.08142 17.6905C6.10654 16.1966 7.14257 14.7063 8.24403 13.2631C8.65481 12.7301 9.08012 12.2043 9.53816 11.7112C10.327 10.8772 11.1413 10.0722 11.9556 9.26002C13.0061 8.21573 14.1258 7.23671 15.3435 6.39185C16.3141 5.73917 17.3465 5.18076 18.4116 4.6985C17.4156 5.23153 16.485 5.88058 15.5471 6.50425V6.50063Z" fill="#5534DA"/>
<path d="M16.4413 24.8489C16.4122 24.9105 16.3722 24.9649 16.3286 25.0157C15.8706 25.4907 15.1944 25.7373 14.5546 25.8642C13.9076 25.9983 13.2423 25.8751 12.6098 25.7336C13.2387 25.2151 13.9439 24.6096 14.0857 23.7647C14.2238 22.7531 13.2678 22.0968 12.3481 22.0533C9.27269 21.9517 6.49541 23.6161 3.88899 25.0556C2.90022 25.5959 1.79876 26.2884 0.624592 26.0165C0.461008 25.9693 0.29379 25.8642 0.242897 25.6901C0.246533 25.643 0.224721 25.5886 0.177464 25.5669C-0.186054 25.4943 0.0720437 26.0056 0.239262 26.0962C1.68243 26.9194 3.68905 25.3928 4.965 24.7329C6.28094 24.0149 7.6405 23.2897 9.07276 22.822C10.2615 22.4702 11.6683 22.0786 12.8933 22.4086C13.5186 22.5899 14.0057 23.2426 13.8058 23.8953C13.5549 24.6495 12.9042 25.1825 12.2972 25.6539C11.3411 25.4254 10.3487 25.1752 9.35994 25.3167C8.81466 25.4146 8.18577 25.6067 7.91314 26.1289C7.48782 26.9846 8.55293 27.1514 9.17091 27.1333C10.3305 27.097 11.4356 26.622 12.3517 25.9222C13.3914 26.1942 14.4201 26.2957 15.4343 25.8678C15.8924 25.6575 16.4122 25.4254 16.6594 24.9577C16.7357 24.8163 16.5103 24.7002 16.4376 24.8417L16.4413 24.8489ZM9.13819 26.8903C8.80376 26.865 8.21486 26.9121 8.07308 26.5386C8.05127 26.0672 8.57474 25.7917 8.96734 25.672C9.97429 25.3674 11.0358 25.6212 12.0318 25.8533C11.1921 26.4661 10.1851 26.8613 9.13819 26.8903Z" fill="#5534DA"/>
</svg>
