<svg width="17" height="17" viewBox="0 0 17 17" fill="none" xmlns="http://www.w3.org/2000/svg">
<path d="M6.11535 12.2307C4.40767 12.2307 2.96152 11.6384 1.77692 10.4538C0.592308 9.26918 0 7.82303 0 6.11535C0 4.40767 0.592308 2.96152 1.77692 1.7769C2.96152 0.5923 4.40767 0 6.11535 0C7.82303 0 9.26918 0.5923 10.4538 1.7769C11.6384 2.96152 12.2307 4.40767 12.2307 6.11535C12.2307 6.82945 12.1109 7.5115 11.8711 8.1615C11.6314 8.8115 11.3115 9.37688 10.9115 9.85765L16.6653 15.6115C16.8038 15.75 16.8746 15.924 16.8778 16.1336C16.881 16.3432 16.8102 16.5205 16.6653 16.6653C16.5205 16.8102 16.3448 16.8826 16.1384 16.8826C15.932 16.8826 15.7564 16.8102 15.6115 16.6653L9.85765 10.9115C9.35765 11.3243 8.78265 11.6474 8.13265 11.8807C7.48265 12.114 6.81022 12.2307 6.11535 12.2307ZM6.11535 10.7308C7.40382 10.7308 8.49517 10.2836 9.3894 9.3894C10.2836 8.49517 10.7308 7.40382 10.7308 6.11535C10.7308 4.82688 10.2836 3.73553 9.3894 2.8413C8.49517 1.94707 7.40382 1.49995 6.11535 1.49995C4.82688 1.49995 3.73553 1.94707 2.8413 2.8413C1.94708 3.73553 1.49998 4.82688 1.49998 6.11535C1.49998 7.40382 1.94708 8.49517 2.8413 9.3894C3.73553 10.2836 4.82688 10.7308 6.11535 10.7308Z" fill="#333236"/>
</svg>
